<svg width="18" height="18" viewBox="0 0 18 18" fill="none" xmlns="http://www.w3.org/2000/svg">
<path d="M12.2107 8.03928C12.2631 8.09153 12.3047 8.1536 12.333 8.22194C12.3614 8.29028 12.376 8.36354 12.376 8.43753C12.376 8.51152 12.3614 8.58478 12.333 8.65312C12.3047 8.72145 12.2631 8.78353 12.2107 8.83578L8.83573 12.2108C8.78348 12.2632 8.7214 12.3047 8.65307 12.3331C8.58473 12.3614 8.51147 12.376 8.43748 12.376C8.36349 12.376 8.29023 12.3614 8.22189 12.3331C8.15355 12.3047 8.09148 12.2632 8.03923 12.2108L6.35173 10.5233C6.29943 10.471 6.25794 10.4089 6.22964 10.3406C6.20134 10.2722 6.18677 10.199 6.18677 10.125C6.18677 10.0511 6.20134 9.97783 6.22964 9.9095C6.25794 9.84117 6.29943 9.77908 6.35173 9.72678C6.45735 9.62116 6.60061 9.56182 6.74998 9.56182C6.82394 9.56182 6.89718 9.57639 6.96551 9.60469C7.03384 9.63299 7.09593 9.67448 7.14823 9.72678L8.43748 11.0172L11.4142 8.03928C11.4665 7.98689 11.5286 7.94533 11.5969 7.91698C11.6652 7.88862 11.7385 7.87402 11.8125 7.87402C11.8865 7.87402 11.9597 7.88862 12.0281 7.91698C12.0964 7.94533 12.1585 7.98689 12.2107 8.03928Z" fill="#F3F3F3"/>
<path d="M3.9375 0C4.08668 0 4.22976 0.0592632 4.33525 0.164752C4.44074 0.270242 4.5 0.413316 4.5 0.5625V1.125H13.5V0.5625C13.5 0.413316 13.5593 0.270242 13.6648 0.164752C13.7702 0.0592632 13.9133 0 14.0625 0C14.2117 0 14.3548 0.0592632 14.4602 0.164752C14.5657 0.270242 14.625 0.413316 14.625 0.5625V1.125H15.75C16.3467 1.125 16.919 1.36205 17.341 1.78401C17.7629 2.20597 18 2.77826 18 3.375V15.75C18 16.3467 17.7629 16.919 17.341 17.341C16.919 17.7629 16.3467 18 15.75 18H2.25C1.65326 18 1.08097 17.7629 0.65901 17.341C0.237053 16.919 0 16.3467 0 15.75V3.375C0 2.77826 0.237053 2.20597 0.65901 1.78401C1.08097 1.36205 1.65326 1.125 2.25 1.125H3.375V0.5625C3.375 0.413316 3.43426 0.270242 3.53975 0.164752C3.64524 0.0592632 3.78832 0 3.9375 0V0ZM1.125 4.5V15.75C1.125 16.0484 1.24353 16.3345 1.4545 16.5455C1.66548 16.7565 1.95163 16.875 2.25 16.875H15.75C16.0484 16.875 16.3345 16.7565 16.5455 16.5455C16.7565 16.3345 16.875 16.0484 16.875 15.75V4.5H1.125Z" fill="#F3F3F3"/>
</svg>
