<svg width="58" height="58" viewBox="0 0 58 58" fill="none" xmlns="http://www.w3.org/2000/svg">
<path d="M39.0196 25.9041C39.187 26.0724 39.3198 26.2725 39.4104 26.4927C39.501 26.7129 39.5477 26.9489 39.5477 27.1873C39.5477 27.4258 39.501 27.6618 39.4104 27.882C39.3198 28.1022 39.187 28.3022 39.0196 28.4706L28.2347 39.3458C28.0677 39.5146 27.8694 39.6485 27.651 39.7399C27.4326 39.8312 27.1985 39.8783 26.9621 39.8783C26.7257 39.8783 26.4916 39.8312 26.2732 39.7399C26.0548 39.6485 25.8564 39.5146 25.6895 39.3458L20.297 33.9082C20.1299 33.7397 19.9973 33.5396 19.9069 33.3194C19.8164 33.0992 19.7699 32.8633 19.7699 32.6249C19.7699 32.3866 19.8164 32.1506 19.9069 31.9304C19.9973 31.7102 20.1299 31.5102 20.297 31.3417C20.6346 31.0013 21.0923 30.8101 21.5697 30.8101C21.806 30.8101 22.04 30.8571 22.2584 30.9483C22.4767 31.0395 22.6751 31.1731 22.8423 31.3417L26.9621 35.4996L36.4744 25.9041C36.6413 25.7353 36.8397 25.6014 37.0581 25.51C37.2764 25.4186 37.5106 25.3716 37.747 25.3716C37.9834 25.3716 38.2175 25.4186 38.4359 25.51C38.6543 25.6014 38.8526 25.7353 39.0196 25.9041Z" fill="#37292A"/>
<path d="M12.5824 0C13.0591 0 13.5163 0.190959 13.8534 0.530869C14.1905 0.870779 14.3799 1.3318 14.3799 1.8125V3.625H43.1396V1.8125C43.1396 1.3318 43.329 0.870779 43.6661 0.530869C44.0032 0.190959 44.4604 0 44.9371 0C45.4138 0 45.871 0.190959 46.2081 0.530869C46.5452 0.870779 46.7346 1.3318 46.7346 1.8125V3.625H50.3295C52.2364 3.625 54.0652 4.38884 55.4136 5.74848C56.762 7.10811 57.5195 8.95218 57.5195 10.875V50.75C57.5195 52.6728 56.762 54.5169 55.4136 55.8765C54.0652 57.2362 52.2364 58 50.3295 58H7.18993C5.28304 58 3.45426 57.2362 2.10588 55.8765C0.757509 54.5169 0 52.6728 0 50.75V10.875C0 8.95218 0.757509 7.10811 2.10588 5.74848C3.45426 4.38884 5.28304 3.625 7.18993 3.625H10.7849V1.8125C10.7849 1.3318 10.9743 0.870779 11.3114 0.530869C11.6485 0.190959 12.1057 0 12.5824 0V0ZM3.59497 14.5V50.75C3.59497 51.7114 3.97372 52.6334 4.64791 53.3133C5.3221 53.9931 6.23649 54.375 7.18993 54.375H50.3295C51.283 54.375 52.1974 53.9931 52.8716 53.3133C53.5457 52.6334 53.9245 51.7114 53.9245 50.75V14.5H3.59497Z" fill="#37292A"/>
</svg>
