<svg width="26" height="25" viewBox="0 0 26 25" fill="none" xmlns="http://www.w3.org/2000/svg">
<path d="M21.4406 21.0892H17.7122V15.346C17.7122 13.9765 17.6873 12.2134 15.773 12.2134C13.8311 12.2134 13.5339 13.7057 13.5339 15.2463V21.0889H9.80558V9.27844H13.3848V10.8925H13.435C13.7932 10.29 14.3108 9.79445 14.9327 9.45848C15.5546 9.12251 16.2575 8.95874 16.9665 8.98462C20.7455 8.98462 21.4422 11.4295 21.4422 14.6102L21.4406 21.0892ZM5.59853 7.66412C4.40355 7.66432 3.43465 6.7116 3.43445 5.53623C3.43425 4.36085 4.40276 3.40785 5.59774 3.40765C6.79272 3.40736 7.76162 4.36008 7.76182 5.53545C7.76192 6.09989 7.53407 6.64126 7.12838 7.04046C6.72268 7.43966 6.17238 7.664 5.59853 7.66412ZM7.4628 21.0893H3.73042V9.27844H7.46271V21.0892L7.4628 21.0893ZM23.2994 0.00180139H1.8569C0.843475 -0.00941384 0.0123853 0.789091 0 1.78589V22.9646C0.0119921 23.9619 0.842984 24.7612 1.85681 24.7507H23.2994C24.3154 24.7631 25.1496 23.9638 25.1637 22.9646V1.78425C25.1492 0.785514 24.3149 -0.0128944 23.2994 0.000157776" fill="#0077B5"/>
</svg>
