<svg width="16" height="13" viewBox="0 0 16 13" fill="none" xmlns="http://www.w3.org/2000/svg">
<path d="M14.4 0H1.6C0.712 0 0.00799999 0.712 0.00799999 1.6L0 11.2C0 12.088 0.712 12.8 1.6 12.8H14.4C15.288 12.8 16 12.088 16 11.2V1.6C16 0.712 15.288 0 14.4 0ZM5.2 8.8H4.24L2.2 6V8.8H1.2V4H2.2L4.2 6.8V4H5.2V8.8ZM9.2 5.008H7.2V5.904H9.2V6.912H7.2V7.8H9.2V8.8H6V4H9.2V5.008ZM14.8 8C14.8 8.44 14.44 8.8 14 8.8H10.8C10.36 8.8 10 8.44 10 8V4H11V7.608H11.904V4.792H12.904V7.6H13.8V4H14.8V8Z" fill="#37292A"/>
</svg>
