<svg width="16" height="18" viewBox="0 0 16 18" fill="none" xmlns="http://www.w3.org/2000/svg">
<path d="M14.2222 1.77778H13.3333V0H11.5556V1.77778H4.44444V0H2.66667V1.77778H1.77778C0.791111 1.77778 0 2.57778 0 3.55556V16C0 16.9778 0.791111 17.7778 1.77778 17.7778H14.2222C15.2 17.7778 16 16.9778 16 16V3.55556C16 2.57778 15.2 1.77778 14.2222 1.77778ZM8 4.44444C9.47556 4.44444 10.6667 5.63556 10.6667 7.11111C10.6667 8.58667 9.47556 9.77778 8 9.77778C6.52444 9.77778 5.33333 8.58667 5.33333 7.11111C5.33333 5.63556 6.52444 4.44444 8 4.44444ZM13.3333 15.1111H2.66667V14.2222C2.66667 12.4444 6.22222 11.4667 8 11.4667C9.77778 11.4667 13.3333 12.4444 13.3333 14.2222V15.1111Z" fill="#37292A"/>
</svg>
