<svg width="16" height="11" viewBox="0 0 16 11" fill="none" xmlns="http://www.w3.org/2000/svg">
<path d="M10.9091 4.36364C12.1164 4.36364 13.0836 3.38909 13.0836 2.18182C13.0836 0.974545 12.1164 0 10.9091 0C9.70182 0 8.72727 0.974545 8.72727 2.18182C8.72727 3.38909 9.70182 4.36364 10.9091 4.36364ZM5.09091 4.36364C6.29818 4.36364 7.26545 3.38909 7.26545 2.18182C7.26545 0.974545 6.29818 0 5.09091 0C3.88364 0 2.90909 0.974545 2.90909 2.18182C2.90909 3.38909 3.88364 4.36364 5.09091 4.36364ZM5.09091 5.81818C3.39636 5.81818 0 6.66909 0 8.36364V10.1818H10.1818V8.36364C10.1818 6.66909 6.78545 5.81818 5.09091 5.81818ZM10.9091 5.81818C10.6982 5.81818 10.4582 5.83273 10.2036 5.85455C11.0473 6.46545 11.6364 7.28727 11.6364 8.36364V10.1818H16V8.36364C16 6.66909 12.6036 5.81818 10.9091 5.81818Z" fill="#37292A"/>
</svg>
