<svg width="64" height="46" viewBox="0 0 64 46" fill="none" xmlns="http://www.w3.org/2000/svg">
<path d="M0 38.3333V7.66667C0 5.63334 0.842855 3.68329 2.34315 2.24551C3.84344 0.807735 5.87827 0 8 0H56C58.1217 0 60.1566 0.807735 61.6569 2.24551C63.1571 3.68329 64 5.63334 64 7.66667V38.3333C64 40.3667 63.1571 42.3167 61.6569 43.7545C60.1566 45.1923 58.1217 46 56 46H8C5.87827 46 3.84344 45.1923 2.34315 43.7545C0.842855 42.3167 0 40.3667 0 38.3333ZM27.16 11.8565C26.8609 11.6524 26.5091 11.5312 26.1429 11.5061C25.7767 11.4809 25.4104 11.5529 25.084 11.714C24.7577 11.8751 24.4839 12.1192 24.2927 12.4196C24.1015 12.7199 24.0002 13.0649 24 13.4167V32.5833C24.0002 32.9351 24.1015 33.2801 24.2927 33.5804C24.4839 33.8808 24.7577 34.1249 25.084 34.286C25.4104 34.4471 25.7767 34.5191 26.1429 34.4939C26.5091 34.4688 26.8609 34.3475 27.16 34.1435L41.16 24.5602C41.4193 24.3829 41.6306 24.1488 41.7764 23.8774C41.9222 23.606 41.9983 23.3052 41.9983 23C41.9983 22.6948 41.9222 22.3939 41.7764 22.1226C41.6306 21.8512 41.4193 21.6171 41.16 21.4398L27.16 11.8565Z" fill="white" fill-opacity="0.8"/>
</svg>
