<svg width="32" height="25" viewBox="0 0 32 25" fill="none" xmlns="http://www.w3.org/2000/svg">
<path d="M31.2604 2.92995C30.1427 3.42688 28.9416 3.76273 27.681 3.91382C28.9679 3.14052 29.9559 1.91598 30.4212 0.456957C29.1979 1.18479 27.8595 1.69759 26.4638 1.97321C25.327 0.758898 23.7074 0 21.9148 0C18.473 0 15.6826 2.79766 15.6826 6.24821C15.6826 6.738 15.7377 7.21483 15.8439 7.67226C10.6645 7.4116 6.07247 4.92409 2.99863 1.14376C2.4623 2.0666 2.15498 3.14005 2.15498 4.285C2.15498 6.45283 3.25529 8.36525 4.92742 9.48581C3.93775 9.45473 2.96986 9.18674 2.10455 8.70419C2.10419 8.73036 2.10419 8.75654 2.10419 8.78283C2.10419 11.8102 4.25237 14.3357 7.10325 14.9097C6.18553 15.1599 5.22291 15.1965 4.28892 15.0168C5.08191 17.4991 7.38352 19.3056 10.1105 19.3561C7.97764 21.0319 5.29039 22.0309 2.3707 22.0309C1.86759 22.0309 1.3716 22.0013 0.884033 21.9436C3.642 23.7164 6.91778 24.7509 10.4372 24.7509C21.9004 24.7509 28.1687 15.2297 28.1687 6.97284C28.1687 6.70184 28.1628 6.43237 28.1507 6.16446C29.3707 5.28015 30.4238 4.18484 31.2604 2.92995Z" fill="#1DA1F2"/>
</svg>
